<?xml version="1.0" encoding="utf-8"?>
<!-- Generator: Adobe Illustrator 24.1.1, SVG Export Plug-In . SVG Version: 6.00 Build 0)  -->
<svg version="1.1" id="Capa_1" xmlns="http://www.w3.org/2000/svg" xmlns:xlink="http://www.w3.org/1999/xlink" x="0px" y="0px"
	 viewBox="0 0 99.92 100.35" style="enable-background:new 0 0 99.92 100.35;" xml:space="preserve">
<style type="text/css">
	.st0{fill:#000059;}
</style>
<g>
	<path class="st0" d="M49.87,5C24.55,5.05,3.91,25.81,4,51.13c0.08,22.84,16.83,41.76,38.72,45.22l0.1-32.05H30.96V51.09h11.86V38.4
		c0-1.17,0.12-2.33,0.4-3.47c1.02-4.19,3.24-6.93,5.54-8.71c2.61-2.02,5.82-3.13,9.11-3.28c11.28-0.52,12.72,0.92,12.72,0.92v11.32
		l-7.21,0c-0.64,0-1.28,0.08-1.88,0.28c-1.2,0.4-2.09,1.12-2.74,1.9c-1.09,1.3-1.65,2.96-1.65,4.66l0,9.06h12.94l-2.16,12.94H57.1
		l0.1,32.32c21.94-3.47,38.72-22.47,38.72-45.39C95.92,25.55,75.29,4.95,49.87,5z"/>
</g>
</svg>
