<?xml version="1.0" encoding="utf-8"?>
<!-- Generator: Adobe Illustrator 24.1.1, SVG Export Plug-In . SVG Version: 6.00 Build 0)  -->
<svg version="1.1" id="Capa_1" xmlns="http://www.w3.org/2000/svg" xmlns:xlink="http://www.w3.org/1999/xlink" x="0px" y="0px"
	 viewBox="0 0 238 240" style="enable-background:new 0 0 238 240;" xml:space="preserve">
<style type="text/css">
	.st0{fill:#FF7BAC;}
	.st1{fill:#FFFFFF;}
</style>
<g>
	<path class="st0" d="M195.62,236.83H42.8c-22.76,0-41.38-18.62-41.38-41.38l0-150.5c0-22.76,18.62-41.38,41.38-41.38h152.82
		c22.76,0,41.38,18.62,41.38,41.38v150.5C237,218.2,218.38,236.83,195.62,236.83z"/>
	<path class="st1" d="M182.64,217.88H58.1c-18.6,0-33.83-15.22-33.83-33.83V61.03c0-18.6,15.22-33.83,33.83-33.83h124.54
		c18.6,0,33.83,15.22,33.83,33.83v123.03C216.46,202.66,201.24,217.88,182.64,217.88z"/>
	<path class="st0" d="M171.87,203.26h-103c-15.58,0-28.32-12.74-28.32-28.32V69.47c0-15.58,12.74-28.32,28.32-28.32h103
		c15.58,0,28.32,12.74,28.32,28.32v105.47C200.19,190.51,187.45,203.26,171.87,203.26z"/>
	<circle class="st1" cx="120.76" cy="128.33" r="49.21"/>
	<circle class="st0" cx="120.76" cy="128.33" r="36.04"/>
	<circle class="st1" cx="172.88" cy="71.23" r="8.71"/>
</g>
</svg>
